<svg version="1.2" xmlns="http://www.w3.org/2000/svg" viewBox="0 0 400 470" width="530">
	<style>
		tspan { white-space:pre } 
		.s0 { fill: none }
		.s1 { stroke: #444444;stroke-miterlimit:11 }
		.t2 { font-size: 13px;fill: #000000;font-weight: 400;font-family: "LiberationSans", "Liberation Sans";text-shadow: 1px 1px 2px #fff, -1px -1px 2px #fff, -1px 1px 2px #fff, 1px -1px 2px #fff;}
		.t3 { font-size: 10px;fill: #000000;font-weight: 400;font-family: "LiberationSans", "Liberation Sans";text-shadow: 1px 1px 2px #fff, -1px -1px 2px #fff, -1px 1px 2px #fff, 1px -1px 2px #fff;}
		.s3 { fill: #000000 }
	</style>
	<g id="Layer 1">
		<g>
			<path class="s0" d=""/>
			<path id="Niedersachsen" class="s1" d="m47.9 166.7l-0.4-2.8 1.5-4.7-2.5-5.3-2.7 1.1-5.7-1.6-1.6-1.4-0.6-4 2.7-0.9-1.4-3.7 2.6-1.1 7.1 0.6 2.5-0.5 1-8.6 1.2-3.8 4-6.6 0.6-4-0.6-5.6 1.1-7.2 2.9-4.7 3.4 1.4-2.2-1.9-8.1-0.6-1.7-2.4 0.2-4.5 1.5-4.2 3-0.8-1.8-3.1 5.2-4.6 2.8-1 5.5-0.4 1.5 1.1 5.2-0.9 10.7-1.1 2.8 0.9 0.6 4.4 3.9 5.1-0.5 1.6-3.5 1.4 1.4 3.4 1.9-0.1 1.8 2.4 1.5 0.2 1.6-1.9 1.1-4.1-3.1-1.1 1.1-4.7 3.2-0.5 1.3 2.2 4.4 1.5 1.4 1.1-1.7 1.6-0.9 3 0.6 6v-7.1l2.2-2.6 1.6 1.8 1.3-1.6-0.3-5.3-4-0.8-0.8-3.1 0.3-2.9 3.1-8.5 1.2-1.4 2.7-0.3 2 2.1 4.1 1.5 9-1.8 5.6 0.1 4.4 7.5 2.9 3.2 2.8 5.5 4.6 2.7 2.4 0.6 0.1 2.4 3.1 4.6 4.6 1.1 3.5-2.2 3.7 2.8 5-1.7 2.1 0.5 5 3.1 2.6 0.1 2.6-0.1 2 1.3 0.3 2.7 6.8 4.8 5.7 5 1.9-1.7 1.8 1.9 1.1-0.7 1.8 2.2 2 2.7 3.2-0.5 5.9 2.2-0.6 2-2 0.6-0.1 3.4-3.2 2.3-5.9 1.8-1.3-1.2-7.2-0.8-1.9 2.8-2.7 1.1-4.4 0.6-0.2 3.1 1.6 3.9 1.3 0.7 3 5.4 2.1 0.4-0.9 4.1 1.7 2.8-1.8 0.4-0.4 1.8 2.6 3.5 2.3 1.9-2.6 1.8 0.6 3.4 2.5 3.7-2.3 2.3 1.3 1.1-0.6 2.2-3.3 2.2 0.8 1.9-4.3 0.9-7.3 0.5-1.2 1.9-1.9 0.2 2.7 2.9-1.2 2 1 2.4-2.2 2.3 0.2 4.1 2.9 4.2 1.2 4.2-3.2 3.9-3.5 1-3.4-2.2-1.7 0.3-0.4 2.6-4.7 4.2-1.7-0.5-1.7 2.8-3.8-0.1-3.6 3.1-1.7-2.2-7.1 3.1 1.7 3.4-1.9 1-1.1-1.4-4.2-1.7 0.5-3.4 1.9-0.1 0.3-4.1-1.5-2.6 1.8-3.6h1.6l-2.3-3.5-4.7-0.2-2-1h-2.5l0.7-4.9 1.7-2.4 0.8-5.9-4.9 0.6 0.5-3-2.9-1.1 1.2-3-4.2-0.9 1-2-0.3-3.4-1.9-3.4-5.1-0.3-0.3-3.3 2.2-0.4 0.9-2.4-3.1-1.7 1.3-4.6 2-0.4 2-3.6-0.6-2.6 0.9-1.5-1.8-1.3-3 2-1.5 3.2-4.9 1.1-4.4-1.2v-4.4l-2.6-2.7-4.9 0.9-1.9 3.1-2.9 0.7-2.4-0.7 1.1 3.2 3.4 2 1.1 3.8v6l1.2 1-3.9 4.6-4.6-1.5-3.2 2.9-5.8 0.9-2 1.6-2-1.1-0.7-2 3.7-1.9 1.1-3-2.6-0.5-1.7-1.8 2.9-6.2-2.3-4-2.8 0.7-4.5-3.2-0.7-3-2.6-0.9-0.4 3.6-1.6 2.5-1.7 0.1-3.7 3.2-4.3 2.4-6.6 0.3zm15.5-88.9l-6.2 1.1-1.4-0.5 3.6-1.1zm9.9-1.3l-4 0.2-0.9-1 4.2 0.1zm6.1-1.3l-1.8 0.9-1.9-0.6 1.2-1zm-37.7 10.3l-1.7 0.4-1.2-1.8 4.5-1zm63.7 24.6l-2.3-0.7 0.6 1.5 3.5 1.3 0.9 3 2.2 3.1v1.7l5.8 0.4 1.7 1.4 2.1-1.6 0.2-4.9-1.5-1.8-0.8 1.4-5.9-3.3-2 0.2z"/>
			<path id="Schleswig-Holstein" class="s1" d="m178.3 101.5l-2.6-0.1-5-3.1-2.1-0.5-0.5-1.4-4.5-4.2-0.5-3 1.3-0.6 0.5-3-2-3.1 1.1-2.3-3.6 0.1-1 2.3-2.5 1.8-2.3 0.3-3.5 2.9-2.1-1.9-1 3.4-3-0.7-3.7-3.1-0.6-4.6-3.4-2.3-1.3-5-6.1-3.7-7.5-0.2-3.2-2.8-2.8-6 2.9-0.4 2.9 0.9 0.8-4.1-1.4-2.9-4.1 1.1-1.6-3.4 1-4.5 2.9-1.1 1.5-2.6-7.8 1.3-3 1-1.7-3.8 3.4-1.2-2.3-1.8 4.3-1.5 3.8 0.2 5-3.1 0.3-2.4-5.3-6.9-1.6-4.2-3.9-3 0.2-1.5-1.5-3.5 0.6-4.7 2.4 0.5 3.2-0.9 12.6 3.6 1.1 2.7 3.6 0.2 1.8-0.9 2.3 0.6 4.5-3.3 0.1 2.2 3.8 0.7 3.7 2.2 0.7 1.6 3.2-2.1 1.9 1.8 1.6 3.8-3.1 1.6 3.6 0.1-0.5 7.7-3.3 3.1-2.9 0.6 1.5 1.3 8.4-2 2.8 2.1-0.5 3.9-1.7 1.5 1.3 1.9 1.3-3.9 3.1-2.2h1.9l2.9 2.2 5.5 2.4 3.1 3 3 0.1 5.5-3.9 2.9-0.4 0.6 1.1 3.5-1.1-2 2.7 0.6 7.1-1 2.5-4 2.7-1.4 1.9-3.8 1-1.7 2.9 1 2.1 3 0.7 1.5 2.2-0.1 1.8-4.9 4-0.1 7.2 1.6 0.3 2.1 2.4 2.6 0.9 0.6 7.1h-4.5l-0.3 3.2-6.6 4.2zm22.6-67l2.1 3.9-4.4-0.7-2.6 0.6-0.5-2.2-2.3 0.3-0.9-1.3 0.9-2.5 3-1.6 3 1.3zm-89.7-2l-1.8 0.5-0.5-2.2 3.4-1.7zm-3-11.8l-4.2-0.1-2-1.3 2.5-2.4 3.1 0.1 1.4 1.6zm-6.1-12.2l1.7 0.5 7.5-0.2-0.9 0.7-4.3-0.3-2 1.1-3.7-0.7-1.3 0.9-0.6 7.1-0.4-2.3 0.6-6.5 3.2-8.6 1.9 0.3-2.8 3.8v3.2zm16.6 26.2l-1.5 0.1-1.1-2.2 1.2-1.1 4.1-0.1zm-18.8-14.1l1.6 3.3-1 1.2-2-3zm0 0l0.9-1z"/>
			<path id="Berlin" class="s1" d="m283.2 143.1l0.2 2 2.5 2.7 2.9 1.3-0.6 3.2 1.4-0.2 3.2 2.2-1.5 4.7-2.1 2-0.3-2-6.6-2.2-1.1 2.2-4.9-1.9h-2.9l-2 1.3-2.3-1.3 1.5-6.4 0.4-4.6 1.8 0.7 0.4-2.3 2.9-2 0.9 1.9 1.9-0.2 3.1-2.3z"/>
			<path id="Mecklenburg-Vorpommern" class="s1" d="m202.4 116.6l-1.8-2.2-1.1 0.7-1.8-1.9-1.9 1.7-5.7-5-6.8-4.8-0.3-2.7-2-1.3-2.6 0.1 1.2-4.4 6.6-4.2 0.3-3.2h4.5l-0.6-7.1-2.6-0.9-2.1-2.4-1.6-0.3 0.1-7.2 4.9-4 0.1-1.8 5.2-2.8 4.2-0.7 2.5 2.4-0.1 2 3.2-1 4.4 3.3 1.1-5.8 4.4-4.6 1.3-3.9 2.4-1 2.9 0.5 8.3-1.9 1.8 0.3 2.9-4.2 5.3-3.8 3.2-5.6 2.1-4.8 3.1 1.3 10-0.2 1.5 0.9-1.7 1.1-6.1-0.9-2.4 0.7-3.3 3.2-2.6-1.1-1 2.8-2.1 2.2 0.3 2.4 1.5 1 0.4-2.3 1.7-2.6 6.8-3.9 1.4-1.3 0.3 1.9 2.2-0.7 1.3 2.1 1.9-0.6 0.9-2.1 2.2-1.9 2.3-0.3 0.3 2.5 2 1.1-0.6 1.2 1.5 4.3 6.2 2.6 1.2 2.3 2.2 0.9 3 4.7 0.4-1.6 4.3-1 3.7-2.3-0.4 1.3 3.9 2.7v-0.7l-2-2.1 2.1-1.3 2.5 4.2 4.8 2.3 7.1 7-1.1 2 1 1.6-5.4 0.2-1.7 1.6-4.2 0.7-1.1-0.7 0.7 0.9 4.5 3.8 4.4 1.6 2.9 0.1 1.4-1.3 1.2 1.8-1.6 1.3 1.8 0.4v2.6l1.5 3.5 0.6 5.3 2.2 3.8 1.5 6.5-2.3 1.6-2.5 3.1-5.2-0.5v-1.2l2.9-2.2 1.7-3.4v-2.7l-3.6-0.6-1.5 1.3-6.2-0.2-2-4.8-2.6-1.9 0.6 3.5-3.5 0.7-3.5 4-2.3 1-1.5 4.7-3 2.8-4.4-0.6-1.7 3.4-2.8-1.5-5.3 5.7-1.9-1.6-2.9 0.7-4.4-0.7-0.2-1.5-3.7-1.6-4.5-1.1-2.9 0.3-3.3-2.8-4.1-1.5-1.5-1.5-4.4 0.9-1.7 3.4-1.9 1.4-5.1 1.8 0.9 1.4-3.4 0.7-1.6-1.9-3.6 0.7-2.3 2 0.7 3.5-1.9 1.6-3.7-0.8-0.2 1.5zm88-61.9l-2 4.1 3.4 2.9 0.4 1.8 2 0.7-0.5 1.8-2.4 2.2 0.5 0.6 3.5-2 0.2-1.8-1.4-4 2.4 0.3 0.6 1.6 2.2 1.1-0.6-4.9-0.8 0.4-2.5-2.9-1.6 3.3-1.4 0.7 0.4-2.8-3.3 1.7 1.1-3.2zm-80.7 7.2l-1 3.2-3.2-0.7 0.5-1.4 2.7-1.6zm56.9-36.2l-1.3 0.9-0.5 3.4-1.3 1.5 1.4-6zm7.9-3.4l0.3 2.8 2.6 1.5 4.4-1 1.5 0.3 1.4 2.7-3.4 4.3 1.3 3.5 3.2 1.1 2.5 2.7-1.8 2.6-2.1 0.1 2-1.8-2.2-1.1-5.2 0.7-4.6 5.1 1.9-0.3 0.3 2-3.9-1 0.7-2-2.3 1.7-5.5-4.7 1.1-2.4 3.5-0.7-0.5-2-2.9-0.3 0.8-1.6 2.7-1.1-1.1-2.8-1.6 0.6-0.7-2.4 2.6-0.5 1.6 0.9 2.7-2.8-0.6 3.8 1.4-1.3 1.5 3 2.7 0.1-0.4-4.1-2 0.1-2.6-3.2-3.2 3.2-0.9-0.9 1.2-4.3-2.2 0.9 0.9-1.9 4.6-1.6 1.9 0.8z"/>
			<path id="Bremen" class="s1" d="m105.4 110.1l4.6 1.6 2-0.2 5.9 3.3 0.8-1.4 1.5 1.8-0.2 4.9-2.1 1.6-1.7-1.4-5.8-0.4v-1.7l-2.2-3.1-0.9-3-3.5-1.3-0.6-1.5zm0.4-18.5l0.4-1.6-1.8-4.3 4 0.8 0.3 5.3-1.3 1.6z"/>
			<path id="Saarland" class="s1" d="m52.7 352.2l-4.2 3.5-4.4-0.7-2.6-1.8-2.6 1.3-0.3-3.8-3.2-1.6-3.6-0.4 0.1 2.8-1.2 1-4.1-1.9-2-6-3.3-4.2 1-1.4-2.9-4.7-3.5-2-2.3 0.5 0.4-4.2 5.5-0.2 4.4 0.5 4.2-1 5.8-2.4 3.1-1.8h2.4l2.7 1.7 2.3 0.2 3.2 2.4 1.9-0.8 1.4 5.6-2.5 2.3 2 3.8 3.2 1v2l-3 5-1 2.8z"/>
			<path id="Bayern" class="s1" d="m235.6 285l0.4 3-1.1 1.3 4 4.2v3.2l2.7 4.4 8.6 4.3-0.1 2.3 2.4 1.5-2.6 7.6-2.6 2.3 1.5 2.5 3 1.8 0.3 3 2 2 1.7 4.2 1.2 0.3 0.9 4.8 3.4 2.2 2.8 3.7 4.9-0.4 3.1 2.2 7.3 10.4 4.8 1.3 3 3.2 0.6 2.7 4 3.2 0.7-1.7 4.2 1 2 3.8 2.8 0.8 3.8 5.9-1.1 2.6 1.3 1.6-0.4 5.1-3.1 5.6-3.8-2.4-4.1-1-3.1 1.5 0.8 3.2-1.7 7.9-5 4.4-5.5 1.1-4.1 1.8-3.8 3.4-2.2 0.5-5.1 5.1 0.7 3.4 2.9 2.9 1 2.7 3.2 2.6 2.6 4.6-3.7 7.6 2.9 1 2.3-0.5 1.8 2.2 0.4 3.1-1.3 2.4 0.2 5.5-1.1 1.4-2.7 0.1-6.7-4.8 1.2-3.5-2.1-3.2-4.4-0.3-3.9 2.5-2.3 0.5-3-3.7-7.4 0.9v-3.2l-2.6 1.6 1.2 4.6-1.5 1.6-9.3-0.2-3.4 0.7-1.2 1.5-8.1-0.7-2.7 4.6-5.6 0.6-1.9 2.2 0.8 1.5-3.2 0.6-1.9 2.1-3.6-1.4-3.4 2.1h-4.2l-0.8-2.6-4.4-3.6 0.3-2.3-2.7 0.9-7.4-2.7-3.3 2-4.4-2.7 0.2 4.8 1.3 3.3-1.6 3.5-1.9 1.2-2.4 3.6-2.7 1.4-3.2 0.4 2-5-0.7-1.5-4.8 0.9v-4.4l-2-3-1.2 0.6-1.8-2.8-5.5-1.1-0.2-2-2.2-0.4-1.4 2.1-4.4-2.2 4.3-1.3 6.1-4.2 3.5 1 4.2-1.1 0.7 1.7 2.2-2.3-0.6-4.8-1.4-1.2 2-1.8-1.2-3.7 0.5-3.6-0.9-1.4 1.7-4.5 0.3-4.4-1.1-2.4-2.1-9.4-2.9-4.7 3.5-5.5 2.6-0.9 0.8 1.3 6.4-3.9v-4.6l-1.7-4.4 1.1-1.3 2.9 2.3 2.1-2.3 0.3 1.8 2.5-1.6-2.5-4 1.1-4v-6.4l-4.1-5.6-3.1-1-0.4-4.6-4.6-4.7-0.5-4.1 1-0.2-1.5-5.7 1.9-0.9-2.2-3.4 0.6-4.3-1.7-2-2.6 3.9-3.2-0.2-0.9-5.8-2.9 1.6 1.7-3.5-1.8-2.6-1.6-4.2-2.5 2.1-0.6-2-1.3 1.8-1.8-0.5 0.6-5.1-1.7 0.7-4.3-1.5-5.3 0.5-1.5 3.2 4.4 1.5-0.9 4.1-1.1-0.7-3.5 1.4-1.3 2.9-5.5 0.1-1.5-2.2 1.5-1.7-0.4-2.8 1.3-0.6 0.4-5.5-2.7-2.7-1.6-4.7 0.2-8.1-1.9-0.7 1.3-2.6 3.8-1.6 1.7 0.8 2.9-1.8 3.8 0.3 2.9 2.8 3.8-0.9 0.9-3.6-1.1-0.5 0.5-3.6 3.8 0.7 1.9-0.6 0.8-2.7 2.6-1.6 0.8-5.8 3.5 0.2 5.4-3 2-4.1 2.7-2.7 2.3 0.8 1.9 2.4 3 1.1 6.9 8.4 2-0.3 1.5 2 1 6.1 4.2 0.9 0.2-2h4.2l-0.1-1.8-4.7-3 0.4-2.3 2.4-1.5 5.9-0.1 1.7 2.3 4.7-1 0.9 3.4 2.2 2.3 2.4-0.2 0.9-5.1-1.3-6.9 3.7-2.8 3 0.3-0.2 4.2 2.1 0.9 2.1 2.9 10-2.2 1.2 1.3 2.9-1.5 2.9 1.7 0.2 2z"/>
			<path id="Thuringen" class="s1" d="m228.1 279.1l-2.9 1.5-1.2-1.3-10 2.2-2.1-2.9-2.1-0.9 0.2-4.2-3-0.3-3.7 2.8 1.3 6.9-0.9 5.1-2.4 0.2-2.2-2.3-0.9-3.4-4.7 1-1.7-2.3-5.9 0.1-2.4 1.5-0.4 2.3 4.7 3 0.1 1.8h-4.2l-0.2 2-4.2-0.9-1-6.1-1.5-2-2 0.3-6.9-8.4-3-1.1-1.9-2.4-2.3-0.8-2.7 2.7-0.3-5.3 1.2-1-0.9-2.9-3.8 0.4-0.3 2.1-2.5-1 1.4-3 1.5-7.4 2.6-0.9 1.4-3.1-1.8-2.3-1.2 0.9-0.6-2.2 3.2 0.1-0.6-2.5 1-1.5 5.1 0.7 0.2-2.9-1.9-0.7 1-3.6-1.6-1.3 1.8-0.5 0.8 1.8 1.3-4.2-5.5-2.3-1.2-3.2-3.8-1.6-0.9-3.4 0.9-1.3 3.6-3.1 3.8 0.1 1.7-2.8 1.7 0.5 4.7-4.2 0.4-2.6 1.7-0.3 3.4 2.2 3.5-1 3.2-3.9 3.9 0.3 5.2 2.3-1.2 1.4 2.2 6.1-0.2 2.5 1.3 1.2 7.3 0.6 4.4 0.9 2 1.5 3.2 5.2-1.1 1.6-3.3 1.7 3.3 3.4 0.3 3.7 9.8 0.2 1.7 4.5 4.8-0.4 2.7 1.4 2.8 2.9 5.8-0.3 1.6 1.4 2.7-5.1-1.1-1.3 0.6-3.1 2.4-0.3 5.8 1.6 2.5 5.2 2.1 1.1 1.8 3.1-1.3 1.8-3.1-0.3-3.8 3.2-1.8-0.1-4.4 2.2 1.1 1.4-1.6 2.9 1.5 2.5 1.6 0.3-2.5 3-2.5 0.1-1.7 3.7-2.4 0.1-1.2 1.8-2.3-0.8-2.3 3.5 0.9 1.5z"/>
			<path id="Sachsen-Anhalt" class="s1" d="m240.7 238.5l-0.6 3.1 1.1 1.3-2.7 5.1-1.6-1.4-5.8 0.3-2.8-2.9-2.7-1.4-4.8 0.4-1.7-4.5-9.8-0.2-0.3-3.7-3.3-3.4 3.3-1.7 1.1-1.6-3.2-5.2-2-1.5-4.4-0.9-7.3-0.6-1.3-1.2 0.2-2.5-2.2-6.1 1.2-1.4-5.2-2.3-3.9-0.3-1.2-4.2-2.9-4.2-0.2-4.1 2.2-2.3-1-2.4 1.2-2-2.7-2.9 1.9-0.2 1.2-1.9 7.3-0.5 4.3-0.9-0.8-1.9 3.3-2.2 0.6-2.2-1.3-1.1 2.3-2.3-2.5-3.7-0.6-3.4 2.6-1.8-2.3-1.9-2.6-3.5 0.4-1.8 1.8-0.4-1.7-2.8 0.9-4.1-2.1-0.4-3-5.4-1.3-0.7-1.6-3.9 0.2-3.1 4.4-0.6 2.7-1.1 1.9-2.8 7.2 0.8 1.3 1.2 5.9-1.8 3.2-2.3 0.1-3.4 2-0.6 0.6-2 3.6 1.8 0.6 1.6 2.4-0.7 2.6 4 4.9 2.5 4.6-0.5 0.7 1.5h3.3l1.2 2.9-1.3 2.1-0.2 2.6 1.4 2.9-0.8 3-1.5 0.4-1.2 4.8 0.9 2.2 2.1-1.4 2.9 3.4-1.4 2.6-0.3 5.8-0.8 4.1 1.5 1.6-1.7 3.5 2.3 3.9 6 6.9 1.7-0.6 3.6 2.8 1.7 0.3 2.1-1.8 7.7 4.7 2.9 0.2 4.4 3.1 6.3-0.4-2.6 4.1 0.9 4.8-1.1 2.2-3.2 3.6-3.1-0.7-4.4-2.3-2.9 2.6-2.5-0.6-1.9 2.2-8.1 0.2-0.4 1.8-4.6 1.4-2.6-0.5-1.5 2-0.1 3.6-1.2 1.3 1.1 7.4-1.8 2 1.5 5.7-0.5 1.6 2.7 4.8z"/>
			<path id="Sachsen" class="s1" d="m235.6 285l-4.4-2.2-0.2-2-2.9-1.7 1.5-2.9-0.9-1.5 2.3-3.5 2.3 0.8 1.2-1.8 2.4-0.1 1.5-3.9 2.5-0.1 2.5-3-1.6-0.3-1.5-2.5 1.6-2.9-1.1-1.4 4.4-2.2 1.8 0.1 3.8-3.2 3.1 0.3 1.3-1.8-1.8-3.1-2.1-1.1-2.5-5.2-5.8-1.6-2.4 0.3-1.6-0.2-2.7-4.8 0.5-1.6-1.5-5.7 1.8-2-1.1-7.4 1.2-1.3 0.1-3.6 1.5-2 2.6 0.5 4.6-1.4 0.4-1.8 8.1-0.2 1.9-2.2 2.5 0.6 2.9-2.6 4.4 2.3 3.1 0.7 4.2 2.8 1.6 4.4-0.8 0.9 0.1 5.5 2.4-0.1 5.8-2.4 4.2 3.1 9.2 0.8 7.6-1 2.5-4.3 0.7-2.8 3.2-3.4 4.1-0.5 2.6 1.2 6.1-3.1 3.2-0.6 4.2 1.1 1 1.5 6.8 2.4 1.3 1.1 1.2 7.2 2.3 3.3 0.3 2-1.8 8.1v2.4l-3 9.1-1.7 2.5-1.1 3.9h-2.8l-3.4-1.6 0.6-3.8h-3.2l0.7-3.9-3.2-2.3-3.6 0.5-4.2-1.3-1.7 3.4 2.5 0.6 0.7 2 2.4 0.9-1.2 2.5-4.1 0.1-1.5 2-5.8 3.1-2.8 0.2-2.5 1.4-0.3 2.2-1.7 1.3-8.7 1.1-3.2 1.4 0.3 1.7-2.7 4-2.6-1.6-3.5 3.6-2-0.7-2.6 5.2-5.7 0.5-0.4 3.5-2.9 1.8-3.6-2-2.7 0.5-2.8 2.6-6.4 0.5-1.5 2.6-2.6 1.9-2.3 3.5-1.9 5.9-2.1-5.8-2.1-0.6-0.4-2z"/>
			<path id="Brandenburg" class="s1" d="m269.5 205.7l3.2-3.6 1.1-2.2-0.9-4.8 2.6-4.1-6.3 0.4-4.4-3.1-2.9-0.2-7.7-4.7-2.1 1.8-1.7-0.3-3.6-2.8-1.7 0.6-6-6.9-2.3-3.9 1.7-3.5-1.5-1.6 0.8-4.1 0.3-5.8 1.4-2.6-2.9-3.4-2.1 1.4-0.9-2.2 1.2-4.8 1.5-0.4 0.8-3-1.4-2.9 0.2-2.6 1.3-2.1-1.2-2.9h-3.3l-0.7-1.5-4.6 0.5-4.9-2.5-2.6-4-2.4 0.7-0.6-1.6-3.6-1.8-5.9-2.2-3.2 0.5-2-2.7 4.3 0.5 0.2-1.5 3.7 0.8 1.9-1.6-0.7-3.5 2.3-2 3.6-0.7 1.6 1.9 3.4-0.7-0.9-1.4 5.1-1.8 1.9-1.4 1.7-3.4 4.4-0.9 1.5 1.5 4.1 1.5 3.3 2.8 2.9-0.3 8.2 2.7 0.2 1.5 4.4 0.7 2.9-0.7 1.9 1.6 5.3-5.7 2.8 1.5 1.7-3.4 4.4 0.6 3-2.8 1.5-4.7 2.3-1 3.5-4 3.5-0.7-0.6-3.5 2.6 1.9 2 4.8 6.2 0.2 1.5-1.3 3.6 0.6v2.7l-1.7 3.4-2.9 2.2v1.2l5.2 0.5 2.5-3.1 2.3-1.6 0.9 3.7 1.2 1.2-2 4.6 0.6 2.7-1.4 5.1-3.1 3-3.8 2.7 0.9 5-1.3 1.6 3.4 1.8 6.2 4.5 4.2 5.1 2.2 0.7 3.6 3.4-1.1 3.6 0.9 1.2-3.1 4.7 0.3 2.4 2.6 6.3 3.4 1.1 0.7 2.3-0.6 5.7 2.9 2.5-2 5.2 0.1 3.7-1.4 3.2-2 2.3-0.2 2.4 1.9 2 0.7 3.1 2.7 2.3 1.2 4.1-1.2 4-4.2-1.1-3.2 0.6-6.1 3.1-2.6-1.2-4.1 0.5-3.2 3.4-0.7 2.8-2.5 4.3-7.6 1-9.2-0.8-4.2-3.1-5.8 2.4-2.4 0.1-0.1-5.5 0.8-0.9-1.6-4.4zm13.7-62.6l-1.2-1.1-3.1 2.3-1.9 0.2-0.9-1.9-2.9 2-0.4 2.3-1.8-0.7-0.4 4.6-1.5 6.4 2.3 1.3 2-1.3h2.9l4.9 1.9 1.1-2.2 6.6 2.2 0.3 2 2.1-2 1.5-4.7-3.2-2.2-1.4 0.2 0.6-3.2-2.9-1.3-2.5-2.7z"/>
			<path id="Nordrhein-Westfalen" class="s1" d="m17.7 280.7l-1.2-2.8 0.7-3.9-0.4-2.9-5.2-0.9-1.3-3.3 3.6-4-2.6-0.2-3.4-6.1-2.6 0.2-1.2-4.5 1.2-2.8 1.7-0.7 0.9-3.8-2.3-1.5 0.3-2.7-4.9 0.2-0.6-4.7 2.5 1 2.5-2.6 6.4-4.3-0.3-2-2 1.2-1-1.7 0.6-2.5 3.4-5 1.4-1 1.1-3-0.1-7.4-3.7-5.4 0.6-2.9-3.2-2.4 0.6-1.7-2.9-1.5 1.1-2.7-1.2-1.9 5.9-2.5 2.6 0.9-2.2-2.8 1.3-0.6 3.5 2.3 5.7 2.4v-1.9l2.3 0.8 7-2.6 4.3-0.5 2.6-3-1.1-2.6-3.7-2.2 3.5-4.2 2.4-0.2 2.1-2.7 2.3-1.3 3-3.2 3.5-1.3 6.6-0.3 4.3-2.4 3.7-3.2 1.7-0.1 1.6-2.5 0.4-3.6 2.6 0.9 0.7 3 4.5 3.2 2.8-0.7 2.3 4-2.9 6.2 1.7 1.8 2.6 0.5-1.1 3-3.7 1.9 0.7 2 2 1.1 2-1.6 5.8-0.9 3.2-2.9 4.6 1.5 3.9-4.6-1.2-1v-6l-1.1-3.8-3.4-2-1.1-3.2 2.4 0.7 2.9-0.7 1.9-3.1 4.9-0.9 2.6 2.7v4.4l4.4 1.2 4.9-1.1 1.5-3.2 3-2 1.8 1.3-0.9 1.5 0.6 2.6-2 3.6-2 0.4-1.3 4.6 3.1 1.7-0.9 2.4-2.2 0.4 0.3 3.3 5.1 0.3 1.9 3.4 0.3 3.4-1 2 4.2 0.9-1.2 3 2.9 1.1-0.5 3 4.9-0.6-0.8 5.9-1.7 2.4-0.5 4.8 2.5-0.1-4 2.4 0.8 0.9-2.3 4.5-2.7 1.8-0.4 1.7-4 0.9-0.9-2.4-2.5-1.6-4.1 1.6 0.9 5.4-9.3 1.5-4.1 5.1 0.9 2 4.3-1.6 1.1 6-3.5 4.9-5-0.5 0.6 4.4-4 6.2-3.1 3.2-2.4-1.2-6.2 5.6 1.3 2.6-1.7 3.4-2.9-0.5-2.6-5.1-0.3-3.9-1.1 0.3-3.5-3.2 0.6-2.4-2.2-0.7-1.7 1.2 0.2 4.6-3.5 1.4 0.8 1.8-3.9 2.7-8.1 1.5-0.7 3.6-3.4 1.3-3.2-1.1-1.7 2-3.9 0.5-4.4 1.9-2.1 1.9v2.7l-2.5-0.7-2.3 0.9 1 6.9-2.9 0.7-2-1.3-1.7 0.6-1.2-1.6-5 1.9-2.1-2.7 0.9 3.1z"/>
			<path id="Baden-Wurttemberg" class="s1" d="m138.8 450l-2.2-0.7-1.8-2.9-4.2-2.1-3.2-0.4-3.8-2.7-2-2.6-4.1-3.1v1.7l3.5 2.6 1.7 4.5-7.6-0.5-4.5 1.5-2.7-1.8-1.6-2.4-3.3 1.5 0.2-3.2-2.5-2.5-2 1.5-0.2-2-5.5 1.7-2.6 3.4-0.5 2.5 2.6 1.6 4.4-1.3-0.4 4.4-1.5-2-3 2.2-3.8 0.1-2.6-2.2-4.4-0.1-3.8 2.8-7.1 0.2-0.5-1.6-3.1-0.6-2.2 2.3-3.4 0.6-1.8-1.3 1-1.9-3 0.6 0.2-1.4-2.6-3.9 0.8-3.6-0.3-3.1 1.6-3.3v-2.4l2.7-7.4-1.6-3.1v-2.5l1.8-5 2.6-3.5 1.2-4.4 2-2.6-0.4-3.1 1.7-5.5 1.5-1.2 0.1-5.7 1.7-2.6 3.9-3.1 0.9-2.7 5.3-3.6 2-4.9 2.1-3.2 3.4-3.1 3-5.9 1.4-7.3 3.7-3.9-0.8-1.1 1.6-3.6v-4l-1.2-1.4-2-5.5 0.3-1.5 3.2 0.5 2.6 2.9 2-1.2-0.5-3.9 2.7-0.6 1.7 4.9 6.6 2.3-1.6 1.3-1.5 4.8 1.3 0.5 4-3.4 0.5-2.9 6.5-0.6-1.7-3.5 1.2-0.1 5.5-0.1 1.3-2.9 3.5-1.4 1.1 0.7 0.9-4.1-4.4-1.5 1.5-3.2 5.3-0.5 4.3 1.5 1.7-0.7-0.6 5.1 1.8 0.5 1.3-1.8 0.6 2 2.5-2.1 1.6 4.2 1.8 2.6-1.7 3.5 2.9-1.6 0.9 5.8 3.2 0.2 2.6-3.9 1.7 2-0.6 4.3 2.2 3.4-1.9 0.9 1.5 5.7-1 0.2 0.5 4.1 4.6 4.7 0.4 4.6 3.1 1 4.1 5.6v6.4l-1.1 4 2.5 4-2.5 1.6-0.3-1.8-2.1 2.3-2.9-2.3-1.1 1.3 1.7 4.4v4.6l-6.3 4-0.8-1.3-2.6 0.9-3.5 5.5 2.9 4.7 2.1 9.4 1.1 2.4-0.3 4.4-1.7 4.5 0.9 1.4-0.5 3.6 1.2 3.7-2 1.8 1.4 1.2 0.6 4.8-2.2 2.3-0.7-1.7-4.2 1.1-3.5-1-6.1 4.2z"/>
			<path id="Hessen" class="s1" d="m121 329.7l-1.2 0.1 1.7 3.5-6.5 0.6-0.5 2.9-4 3.4-1.3-0.5 1.5-4.8 1.6-1.3-6.6-2.3-1.7-4.9-2.7 0.6 0.5 3.9-2 1.2-2.6-2.9-3.2-0.5-2-5.2 0.8-2.7 3.8-2.7-1.9-0.6-3-7.6v-4.2l-4-4.8-2-0.6-4.9 1.5-5.1 2.5h-1.5l-1-2.3-2.9-2.7 2.8-2 0.5-1.6 2.6 0.5-0.9-2.8 1.1-2.7 2.7-1.6 1.1 0.7 1-2.8 2.9-0.8-2.6-5.7-2.6-1.5 1.6-3.5-0.4-4 1.5-1.4 2.5 1.2 2.3-3.5-1.5-3.7 0.6-2.3 1.7-3.4-1.3-2.6 6.2-5.6 2.4 1.2 3.1-3.2 4-6.2-0.6-4.4 5 0.5 3.5-4.9-1.1-6-4.3 1.6-0.9-2 4.1-5.1 9.3-1.5-0.9-5.4 4.1-1.6 2.5 1.6 0.9 2.4 4-0.9 0.4-1.7 2.7-1.8 2.3-4.5-0.8-0.9 4-2.4 2 1 4.7 0.2 2.3 3.5h-1.8l-1.8 3.6 1.5 2.6-0.3 4.1-1.9 0.1-0.5 3.4 4.2 1.7 1.1 1.4 1.9-1-1.7-3.4 7.1-3.1 1.7 2.2-0.9 1.3 0.9 3.4 3.8 1.6 1.2 3.2 5.5 2.3-1.3 4.2-0.8-1.8-1.8 0.5 1.6 1.3-1 3.6 1.9 0.7-0.2 2.9-5.1-0.7-1 1.5 0.6 2.5-3.2-0.1 0.6 2.2 1.2-0.9 1.8 2.3-1.4 3.1-2.6 0.9-1.5 7.4-1.4 3 2.5 1 0.3-2.1 3.8-0.4 0.9 2.9-1.2 1 0.3 5.3-2 4.1-5.4 3-3.5-0.2-0.8 5.8-2.6 1.6-0.8 2.7-1.9 0.6-3.8-0.7-0.5 3.6 1.1 0.5-0.9 3.6-3.8 0.9-2.9-2.8-3.8-0.3-2.9 1.8-1.7-0.8-3.8 1.6-1.3 2.6 1.9 0.7-0.2 8.1 1.6 4.7 2.7 2.7-0.4 5.5-1.3 0.6 0.4 2.8-1.5 1.7z"/>
			<path id="Hamburg" class="s1" d="m168.6 97.8l-5 1.7-3.7-2.8-3.5 2.2-4.6-1.1-3.1-4.6-0.1-2.4 2-0.5-2.8-1 1-3.4 2.1 1.9 3.5-2.9 2.3-0.3 2.5-1.8 1-2.3 3.6-0.1-1.1 2.3 2 3.1-0.5 3-1.3 0.6 0.5 3 4.5 4.2z"/>
			<path id="Rheinland-Pfalz" class="s1" d="m94.2 328.8l-0.3 1.5 2 5.5 1.2 1.4v4l-1.6 3.6 0.8 1.1-3.7 3.9-1.4 7.3-3 5.9-3.4 3-4.3-1.4-6.1-3.6-2.9 0.1-3.2-1.1-4.9 0.6-1.5-1.6-3.4-1.4-1.8-2.8 0.3-1.4-4.1-1.1-2.9-2.4 1-2.8 3-5v-2l-3.2-1-2-3.8 2.5-2.3-1.4-5.6-1.9 0.8-3.2-2.4-2.3-0.2-2.7-1.7h-2.4l-3.1 1.8-5.8 2.4-4.2 1-4.4-0.5-5.5 0.2 0.2-2.4 2.8-4.3 0.1-1.8 2.9-1.7 0.6-5.6-3.2-0.8-7.1-5.4-1.7-4.2-0.5 0.8-2.1-6.5 1.5-6.9 1.6-0.9-0.6-2 4.2-2.3 2-3 2.8-0.7 2-0.5-0.9-3.1 2.1 2.7 5-1.9 1.2 1.6 1.7-0.6 2 1.3 2.9-0.7-1-6.9 2.3-0.9 2.5 0.7v-2.7l2.1-1.9 4.4-1.9 3.9-0.5 1.7-2 3.2 1.1 3.4-1.3 0.7-3.6 8.1-1.5 3.9-2.7-0.8-1.8 3.5-1.4-0.2-4.6 1.7-1.2 2.2 0.7-0.6 2.4 3.5 3.2 1.1-0.3 0.3 3.9 2.6 5.1 2.9 0.5-0.6 2.3 1.5 3.7-2.3 3.5-2.5-1.2-1.5 1.4 0.4 4-1.6 3.5 2.6 1.5 2.6 5.7-2.9 0.8-1 2.8-1.1-0.7-2.7 1.6-1.1 2.7 0.9 2.8-2.6-0.5-0.5 1.6-2.8 2 2.9 2.7 1 2.3h1.5l5.1-2.5 4.9-1.5 2 0.6 4 4.8v4.2l3 7.6 1.9 0.6-3.8 2.7-0.8 2.7z"/>
		</g>
		<text id="Niedersachsen" style="transform: matrix(1,0,0,1,83.204,148.07)" >
			<tspan x="0" y="0" class="t2">Niedersachsen
</tspan>
		</text>
		<text id="Schleswig-" style="transform: matrix(1,0,0,1,124.689,50.718)" >
			<tspan x="0" y="0" class="t2">Schleswig-
</tspan>
		</text>
		<text id="Holstein" style="transform: matrix(1,0,0,1,124.689,65.118)" >
			<tspan x="0" y="0" class="t2">Holstein
</tspan>
		</text>
		<text id="Berlin" style="transform: matrix(1,0,0,1,264.68,141.955)" >
			<tspan x="0" y="0" class="t3">Berlin
</tspan>
		</text>
		<text id="Mecklenburg-" style="transform: matrix(1,0,0,1,209.691,75.347)" >
			<tspan x="0" y="0" class="t2">Mecklenburg-
</tspan>
		</text>
		<text id="Vorpommern" style="transform: matrix(1,0,0,1,209.691,89.747)" >
			<tspan x="0" y="0" class="t2">Vorpommern
</tspan>
		</text>
		<text id="Bremen" style="transform: matrix(1,0,0,1,91.464,109.362)" >
			<tspan x="0" y="0" class="t3">Bremen
</tspan>
		</text>
		<text id="Saarland" style="transform: matrix(1,0,0,1,13.75,335.787)" >
			<tspan x="0" y="0" class="t2">Saarland
</tspan>
		</text>
		<text id="Bayern" style="transform: matrix(1,0,0,1,202.396,387.848)" >
			<tspan x="0" y="0" class="t2">Bayern
</tspan>
		</text>
		<text id="Thuringen" style="transform: matrix(1,0,0,1,174.134,259.233)" >
			<tspan x="0" y="0" class="t2">Thuringen
</tspan>
		</text>
		<text id="Sachsen-Anhalt" style="transform: matrix(1,0,0,1,182.167,199.259)" >
			<tspan x="0" y="0" class="t2">Sachsen-Anhalt
</tspan>
		</text>
		<text id="Sachsen" style="transform: matrix(1,0,0,1,262.108,241.922)" >
			<tspan x="0" y="0" class="t2">Sachsen
</tspan>
		</text>
		<text id="Brandenburg" style="transform: matrix(1,0,0,1,245.76,173.225)" >
			<tspan x="0" y="0" class="t2">Brandenburg
</tspan>
		</text>
		<text id="Nordrhein-Westfalen" style="transform: matrix(1,0,0,1,17.794,209.113)" >
			<tspan x="0" y="0" class="t2">Nordrhein-Westfalen
</tspan>
		</text>
		<text id="Baden-" style="transform: matrix(1,0,0,1,73.857,397.671)" >
			<tspan x="0" y="0" class="t2">Baden-
</tspan>
		</text>
		<text id="Wurttemberg" style="transform: matrix(1,0,0,1,73.857,413.271)" >
			<tspan x="0" y="0" class="t2">Wurttemberg
</tspan>
		</text>
		<text id="Hessen" style="transform: matrix(1,0,0,1,96.779,272.582)" >
			<tspan x="0" y="0" class="t2">Hessen
</tspan>
		</text>
		<text id="Hamburg" style="transform: matrix(1,0,0,1,136.229,80.296)" >
			<tspan x="0" y="0" class="t3">Hamburg
</tspan>
		</text>
		<text id="Rheinland-Pfalz" style="transform: matrix(1,0,0,1,17.794,316.636)" >
			<tspan x="0" y="0" class="t2">Rheinland-Pfalz
</tspan>
		</text>
		<path class="s0" d=""/>
		<path class="s3" d=""/>
	</g>
</svg>